<?xml version="1.0" encoding="utf-8"?>
<!-- Generator: Adobe Illustrator 24.3.0, SVG Export Plug-In . SVG Version: 6.00 Build 0)  -->
<svg version="1.1" id="Layer_1" xmlns="http://www.w3.org/2000/svg" xmlns:xlink="http://www.w3.org/1999/xlink" x="0px" y="0px"
	 viewBox="0 0 507.12 160.08" style="enable-background:new 0 0 507.12 160.08;" xml:space="preserve">
<style type="text/css">
	.st0{fill:#ED1D24;enable-background:new    ;}
	.st1{fill:#FFD400;}
</style>
<rect x="107.88" width="399.24" height="160.08"/>
<rect y="0.08" class="st0" width="137.04" height="160"/>
<g>
	<path class="st1" d="M17.39,142.92c-0.42,0.19-0.68,0.3-0.75,0.33c-0.35,0.14-0.67,0.22-0.97,0.24c-0.39,0.03-0.89-0.18-1.48-0.64
		c-0.41,0.83-0.88,1.5-1.41,2l3.93,3.41l-0.99,1.51l-4.29-4.24c-0.85-0.83-1.36-1.36-1.53-1.58c-0.5-0.63-0.75-1.24-0.75-1.84
		c0-1.08,0.56-1.62,1.67-1.62c0.19,0,0.46,0.06,0.8,0.16c0.35,0.11,0.57,0.17,0.68,0.17c0.25,0,0.38-0.31,0.38-0.92v-0.28
		c0-0.35-0.08-0.64-0.24-0.89h-2c-1.13-0.39-1.7-1.14-1.7-2.24h3.89c0.5,0,1.08,0.75,1.74,2.24c0.22,0.61,0.33,1.21,0.33,1.79
		c0,0.24-0.01,0.46-0.02,0.68c0.36,0.22,0.69,0.33,1,0.33c0.39,0,0.96-0.24,1.71-0.71l0.05-2.1h-1.46c-1.13-0.39-1.7-1.14-1.7-2.24
		h5.51v12.62l-2.4-2.73V142.92z"/>
	<path class="st1" d="M22.13,138.73c-1.13-0.39-1.7-1.14-1.7-2.24h9.02v12.6l-2.61-2.68v-0.75c-0.99,0.38-1.64,0.56-1.96,0.56
		c-0.71,0-1.4-0.23-2.07-0.68c-0.61-0.41-1.11-0.94-1.48-1.6c-0.27-0.46-0.4-0.95-0.4-1.48c0-0.82,0.25-1.45,0.75-1.91
		c0.3-0.28,0.75-0.52,1.34-0.71c0.55-0.17,1.05-0.26,1.51-0.26c0.9,0,1.66,0.29,2.31,0.87v-1.72H22.13z M26.73,142.02
		c-0.07-0.12-0.38-0.18-0.92-0.18c-1.04,0-1.94,0.36-2.7,1.08c-0.2,0.2-0.3,0.38-0.3,0.52c0,0.39,0.26,0.59,0.77,0.59
		c0.28,0,0.81-0.18,1.58-0.54c1.12-0.5,1.68-0.89,1.68-1.18C26.84,142.23,26.8,142.13,26.73,142.02z"/>
	<path class="st1" d="M27.55,136.9c-0.33-0.58-0.8-1.06-1.41-1.44c-0.11-0.06-0.45-0.18-1.01-0.35c-0.08-0.02-0.2-0.02-0.35-0.02
		c-0.16,0-0.4,0.03-0.73,0.09l-1.72-2.35c0.58-0.09,1.01-0.14,1.27-0.14c1.32,0,2.45,0.49,3.39,1.46c0.47,0.49,0.91,1.03,1.32,1.62
		c0.17,0.24,0.4,0.61,0.68,1.13L27.55,136.9L27.55,136.9z"/>
	<path class="st1" d="M30.04,134.33c-0.36-0.31-0.67-0.47-0.92-0.47c-0.63,0-1.03,0.17-1.2,0.49c-0.17,0.38-0.21,0.93-0.12,1.67
		c0.03,0.14,0.15,0.46,0.35,0.94h-0.92c-0.41-0.78-0.61-1.44-0.61-1.98v-0.68c0-0.46,0.08-0.84,0.24-1.15
		c0.41-0.82,0.92-1.22,1.53-1.22c0.38,0,0.8,0.15,1.26,0.45c0.46,0.3,0.83,0.75,1.1,1.34L30.04,134.33z"/>
	<path class="st1" d="M45.43,138.73c-1.13-0.39-1.7-1.14-1.7-2.24h5.61v12.55l-2.31-2.32v-2.55h-2.59c-0.11,0.58-0.2,0.98-0.26,1.2
		c-0.14,0.49-0.29,0.87-0.45,1.15c-0.13,0.19-0.3,0.28-0.52,0.28c-0.2,0-0.38-0.08-0.53-0.25c-0.15-0.16-0.89-1.3-2.23-3.4
		c-0.08-0.11-0.13-0.19-0.14-0.24c-0.11-0.19-0.17-0.36-0.17-0.52c0-0.36,0.18-0.57,0.54-0.64c0.14-0.03,0.35-0.05,0.61-0.05h1.23
		v-0.38c-0.85-0.03-1.59-0.29-2.21-0.78c-0.8-0.63-1.2-1.37-1.2-2.21c0-0.54,0.16-0.98,0.47-1.33s0.74-0.52,1.27-0.52
		c1.52,0,2.69,0.88,3.49,2.64c0.2,0.48,0.31,0.85,0.31,1.12v1.47h2.38v-2.99h-1.6L45.43,138.73L45.43,138.73z M41.89,138.26
		c-0.49,0-0.73,0.24-0.73,0.72c0,0.32,0.16,0.58,0.47,0.79c0.27,0.17,0.57,0.26,0.9,0.26c0.11,0,0.18-0.02,0.21-0.05
		c0.06-0.13,0.09-0.25,0.09-0.36c0-0.33-0.08-0.64-0.24-0.93C42.44,138.4,42.21,138.26,41.89,138.26z"/>
	<path class="st1" d="M51.95,138.73c-1.13-0.39-1.7-1.14-1.7-2.24h9.02v12.6l-2.61-2.68v-0.75c-0.99,0.38-1.64,0.56-1.96,0.56
		c-0.71,0-1.4-0.23-2.07-0.68c-0.61-0.41-1.11-0.94-1.48-1.6c-0.27-0.46-0.4-0.95-0.4-1.48c0-0.82,0.25-1.45,0.75-1.91
		c0.3-0.28,0.75-0.52,1.34-0.71c0.55-0.17,1.05-0.26,1.51-0.26c0.9,0,1.66,0.29,2.31,0.87v-1.72H51.95z M56.56,142.02
		c-0.07-0.12-0.38-0.18-0.92-0.18c-1.04,0-1.94,0.36-2.7,1.08c-0.2,0.2-0.3,0.38-0.3,0.52c0,0.39,0.26,0.59,0.77,0.59
		c0.28,0,0.81-0.18,1.58-0.54c1.12-0.5,1.68-0.89,1.68-1.18C56.66,142.23,56.63,142.13,56.56,142.02z"/>
	<path class="st1" d="M61.78,138.73c-1.13-0.39-1.7-1.14-1.7-2.24h6.31v2.24H61.78z M63.38,142.92v2.17c0,0.39-0.16,0.59-0.47,0.59
		c-0.33,0-0.77-0.31-1.32-0.94s-0.9-1.18-1.06-1.65l-0.12-0.56c-0.05-0.24-0.07-0.42-0.07-0.56c0-0.83,0.31-1.35,0.94-1.55
		c0.28-0.09,0.62-0.14,1.01-0.14h4.1v2.66h-3.01V142.92z"/>
	<path class="st1" d="M68.79,138.73c-0.33-0.11-0.6-0.26-0.82-0.45c-0.56-0.46-0.85-1.04-0.87-1.77l-0.02-0.02h8.29v12.6l-2.4-2.45
		v-4.17h-1.76c-0.55,0-0.96,0.04-1.23,0.11c-0.27,0.07-0.49,0.22-0.66,0.45c-0.16,0.23-0.25,0.47-0.25,0.72
		c0,0.8,0.58,1.91,1.74,3.32c0.38,0.38,0.84,0.86,1.39,1.44l-0.73,1.06c-0.38-0.22-0.96-0.77-1.75-1.64s-1.28-1.5-1.47-1.9
		c-0.68-1.35-1.01-2.59-1.01-3.72c0-0.77,0.36-1.38,1.08-1.84c0.63-0.39,1.34-0.59,2.14-0.59h2.51v-1.15L68.79,138.73L68.79,138.73z
		"/>
	<path class="st1" d="M75.82,152.89c-0.47,0.34-1.11,0.51-1.91,0.51c-1.04,0-2.02-0.47-2.94-1.41c-0.82-0.83-1.23-1.62-1.23-2.38
		h1.2c0.06,0.58,0.48,1.13,1.25,1.65c0.55,0.38,1.13,0.56,1.74,0.56c0.83,0,1.25-0.24,1.25-0.73c0-0.36-0.31-0.54-0.94-0.54
		c-0.27,0-0.5,0.03-0.71,0.09c-0.08,0.02-0.13,0.05-0.17,0.09c-0.06,0.09-0.13,0.3-0.19,0.61l-1.06-2.21
		c0.46-0.2,0.91-0.31,1.37-0.31c1.16,0,2,0.29,2.52,0.87c0.35,0.39,0.52,0.89,0.52,1.51C76.52,151.99,76.29,152.56,75.82,152.89z"/>
	<path class="st1" d="M93.37,142.92c-0.42,0.19-0.68,0.3-0.75,0.33c-0.35,0.14-0.67,0.22-0.97,0.24c-0.39,0.03-0.89-0.18-1.48-0.64
		c-0.41,0.83-0.88,1.5-1.41,2l3.93,3.41l-0.99,1.51l-4.29-4.24c-0.85-0.83-1.36-1.36-1.53-1.58c-0.5-0.63-0.75-1.24-0.75-1.84
		c0-1.08,0.56-1.62,1.67-1.62c0.19,0,0.46,0.06,0.8,0.16c0.35,0.11,0.57,0.17,0.68,0.17c0.25,0,0.38-0.31,0.38-0.92v-0.28
		c0-0.35-0.08-0.64-0.24-0.89h-2c-1.13-0.39-1.7-1.14-1.7-2.24h3.89c0.5,0,1.08,0.75,1.74,2.24c0.22,0.61,0.33,1.21,0.33,1.79
		c0,0.24-0.01,0.46-0.02,0.68c0.36,0.22,0.69,0.33,1,0.33c0.39,0,0.96-0.24,1.71-0.71l0.05-2.1h-1.46c-1.13-0.39-1.7-1.14-1.7-2.24
		h5.51v12.62l-2.4-2.73C93.37,146.37,93.37,142.92,93.37,142.92z"/>
	<path class="st1" d="M96.05,152.89c-0.47,0.34-1.11,0.51-1.91,0.51c-1.04,0-2.02-0.47-2.94-1.41c-0.82-0.83-1.23-1.62-1.23-2.38
		h1.2c0.06,0.58,0.48,1.13,1.25,1.65c0.55,0.38,1.13,0.56,1.74,0.56c0.83,0,1.25-0.24,1.25-0.73c0-0.36-0.31-0.54-0.94-0.54
		c-0.27,0-0.5,0.03-0.71,0.09c-0.08,0.02-0.13,0.05-0.17,0.09c-0.06,0.09-0.13,0.3-0.19,0.61l-1.06-2.21
		c0.46-0.2,0.91-0.31,1.37-0.31c1.16,0,2,0.29,2.52,0.87c0.35,0.39,0.52,0.89,0.52,1.51C96.76,151.99,96.52,152.56,96.05,152.89z"/>
	<path class="st1" d="M96.85,136.5h1.63c-0.3-1-0.45-1.7-0.45-2.1c0-1.05,0.72-1.95,2.17-2.71c0.31-0.16,0.71-0.24,1.18-0.24
		c0.96,0,1.94,0.24,2.94,0.72s1.79,1.1,2.36,1.84c0.46,0.61,0.82,1.43,1.11,2.47l-1.01,0.05c-0.13-0.58-0.44-1.18-0.95-1.79
		c-0.51-0.61-1.03-1-1.57-1.17c-0.71-0.24-1.28-0.36-1.72-0.36c-0.69,0-1.23,0.23-1.6,0.69c-0.38,0.46-0.57,0.98-0.57,1.56
		c0,0.19,0.09,0.53,0.27,1.02h0.34v12.62l-2.4-2.73v-7.65C97.43,138.34,96.85,137.59,96.85,136.5z"/>
	<path class="st1" d="M103.9,138.73c-1.13-0.39-1.7-1.14-1.7-2.24h11.43v12.55l-1.98-1.91c-0.77,0.55-1.55,0.82-2.36,0.82
		c-0.5,0-1.33-0.24-2.5-0.71c-0.74-0.3-1.53-0.86-2.38-1.7c-0.8-0.78-1.41-1.55-1.84-2.31c-0.3-0.56-0.45-1.13-0.45-1.7
		c0-0.41,0.13-0.73,0.38-0.96c0.24-0.17,0.49-0.26,0.78-0.26c0.2,0,0.41,0.05,0.61,0.14L103.9,138.73L103.9,138.73z M105.92,138.73
		c0,0.42,0,0.83,0,1.22c0,1.16-0.21,2.17-0.64,3.01c-0.2,0.41-0.28,0.71-0.24,0.92c0.16,0.67,0.67,1.22,1.55,1.65
		c0.77,0.38,1.54,0.56,2.31,0.56c0.83,0,1.63-0.35,2.38-1.04v-0.49c-0.94,0.52-1.74,0.78-2.38,0.78c-0.8,0-1.48-0.29-2.03-0.88
		s-0.82-1.29-0.82-2.11c0-0.78,0.28-1.46,0.84-2.01c0.56-0.56,1.22-0.84,1.99-0.84c0.8,0,1.6,0.27,2.4,0.8v-1.58h-5.36V138.73z
		 M110.04,141.58c-0.79,0-1.44,0.22-1.98,0.67c-0.22,0.19-0.31,0.4-0.26,0.62c0.03,0.19,0.2,0.29,0.49,0.29
		c0.35,0,0.86-0.12,1.53-0.36c0.79-0.27,1.18-0.56,1.18-0.86C111.01,141.7,110.69,141.58,110.04,141.58z"/>
	<path class="st1" d="M120.62,138.73h-4.16c-1.25-0.38-1.87-1.11-1.87-2.21l8.43-0.02v12.62l-2.4-2.73v-3.46h-3.02v2.17
		c0,0.39-0.16,0.59-0.47,0.59c-0.33,0-0.77-0.31-1.32-0.94s-0.9-1.18-1.06-1.65l-0.12-0.56c-0.05-0.24-0.07-0.42-0.07-0.56
		c0-0.83,0.32-1.35,0.95-1.55c0.28-0.09,0.62-0.14,1.02-0.14h4.09C120.62,140.29,120.62,138.73,120.62,138.73z"/>
	<path class="st1" d="M126.77,142.59l-1.65-1.65l1.65-1.62l1.7,1.63L126.77,142.59z M126.77,148.03l-1.65-1.62l1.65-1.65l1.7,1.64
		L126.77,148.03z"/>
</g>
<g>
	<g>
		<path class="st1" d="M180.37,63.49c10.03,1.82,13.3,6.16,13.3,14.98v1.22c0,10.26-5.02,15.13-20.83,15.13
			c-3.88,0-9.35,0.08-19-0.15l1.6-8.59c8.06,0.23,12.54,0.15,17.56,0.15c8.51,0,10.41-1.44,10.41-6.61c0-4.56-0.91-6.01-6.77-6.99
			l-9.2-1.52c-10.95-1.82-13.53-6.39-13.53-14.67v-1.37c0-9.12,5.25-14.67,20.14-14.67c5.63,0,9.28-0.08,18.02,0.15l-1.6,8.59
			c-7.6-0.23-12.39-0.15-16.95-0.15c-7.6,0-9.5,1.44-9.5,6.31c0,4.1,0.91,5.7,6.46,6.54L180.37,63.49z"/>
		<path class="st1" d="M199.9,82.04V55.13h9.88v25.62c0,4.56,0.68,6.99,8.06,6.99c7.3,0,7.98-2.43,7.98-6.99V55.13h9.88v26.91
			c0,10.26-5.7,13.83-17.86,13.83C205.61,95.87,199.9,92.3,199.9,82.04"/>
		<path class="st1" d="M253.65,94.66h-9.88v-26c0-10.11,5.85-13.68,15.96-13.68c3.88,0,6.31,0,8.97,0.08l-1.6,8.21
			c-2.05-0.08-4.79-0.15-6.39-0.15c-6.38,0-7.07,2.36-7.07,7.15v24.39H253.65z"/>
		<path class="st1" d="M277.06,100.05c5.7,0.23,8.89,0.15,12.54,0.15c6.92,0,9.43-1.9,9.43-9.27v-0.76
			c-2.05,1.67-4.1,2.97-10.79,2.97c-9.81,0-15.13-3.5-15.13-12.92V55.13h9.88v23.11c0,4.56,0.46,6.99,7.37,6.99
			c7.3,0,8.67-1.9,8.67-7.68V55.13h9.88v35.88c0,12.24-5.25,17.1-18.85,17.1c-4.26,0-7.3,0.08-14.6-0.15L277.06,100.05z"/>
		<path class="st1" d="M351.17,87.51c0,5.4-2.13,7.15-8.14,7.15h-12.39c-10.87,0-14.9-4.18-14.9-11.78V81.2
			c0-8.44,4.79-12.01,15.36-12.01c5.24,0,8.74,0.99,10.49,2.13v-1.37c0-5.55-1.9-6.99-8.82-6.99c-3.88,0-9.58,0.15-13.45,0.15
			l1.6-7.98c2.81-0.08,7.22-0.15,12.31-0.15c12.39,0,17.94,4.18,17.94,13.53L351.17,87.51L351.17,87.51z M341.6,87.51v-6.16
			c0-3.65-1.06-5.02-7.75-5.02h-1.14c-5.78,0-7.37,1.22-7.37,4.94v1.44c0,3.27,1.52,4.79,6.61,4.79L341.6,87.51L341.6,87.51z"/>
		<polygon class="st1" points="379.45,40.53 379.45,85.91 405.98,85.91 404.31,94.66 369.34,94.66 369.34,40.53 		"/>
		<path class="st1" d="M416.32,49.35c-4.33,0-5.85-1.52-5.85-5.4c0-3.72,1.52-5.4,5.85-5.4c4.33,0,5.85,1.67,5.85,5.4
			C422.17,47.83,420.65,49.35,416.32,49.35 M411.3,55.13h9.88v39.53h-9.88V55.13z"/>
		<path class="st1" d="M439.12,55.13h14.21l-1.6,8.13h-12.62v31.4h-9.88V56.34c0-13.61,4.94-18.32,18.93-18.32
			c3.04,0,4.56-0.08,8.13,0.15l-1.6,8.13c-2.13-0.08-4.41-0.15-6.46-0.15C441.4,46.16,439.35,47.6,439.12,55.13"/>
		<path class="st1" d="M465.27,78.24c0,7.3,1.29,8.97,8.59,8.97c3.57,0,7.83,0.08,14.52-0.15l-1.52,7.6
			c-5.62,0.23-8.67,0.15-13.45,0.15c-14.37,0-18.02-6.61-18.02-17.86v-4.26c0-12.16,3.95-18.78,18.32-18.78
			c13.3,0,17.33,6.23,17.33,14.75v1.29c0,6.99-1.52,8.29-6.01,8.29H465.27z M465.27,71.02h16.34v-1.75c0-5.85-1.75-7.91-8.13-7.91
			C466.56,61.36,465.27,63.34,465.27,71.02"/>
		<rect x="313.5" y="106.97" class="st1" width="4.03" height="21.6"/>
		<polygon class="st1" points="326.18,106.97 336.52,121.96 336.52,106.97 340.53,106.97 340.53,128.57 337.01,128.57 
			326.72,113.71 326.72,128.57 322.69,128.57 322.69,106.97 		"/>
		<path class="st1" d="M355.24,116.14c4,0.73,5.31,2.46,5.31,5.98v0.49c0,4.1-2,6.04-8.31,6.04c-1.55,0-3.73,0.03-7.59-0.06
			l0.64-3.43c3.22,0.09,5.01,0.06,7.01,0.06c3.4,0,4.16-0.58,4.16-2.64c0-1.82-0.36-2.4-2.7-2.79l-3.67-0.61
			c-4.37-0.73-5.4-2.55-5.4-5.86v-0.55c0-3.64,2.09-5.86,8.04-5.86c2.24,0,3.7-0.03,7.19,0.06l-0.64,3.43
			c-3.03-0.09-4.95-0.06-6.77-0.06c-3.03,0-3.79,0.58-3.79,2.52c0,1.64,0.36,2.28,2.58,2.61L355.24,116.14z"/>
		<path class="st1" d="M364.46,119.93v-12.95h4.03v12.95c0,4.49,0.85,5.7,4.61,5.7c3.76,0,4.64-1.21,4.64-5.7v-12.95h4.03v12.95
			c0,6.07-1.73,9.19-8.68,9.19C366.19,129.12,364.46,126,364.46,119.93"/>
		<path class="st1" d="M395.01,120.6h-4.19v7.98h-4.03v-21.6h8.4c5.43,0,7.8,1.82,7.8,6.34v0.91c0,3.19-1.4,5.01-4.1,5.82l5.07,8.52
			h-4.49L395.01,120.6z M398.96,113.68c0-2.76-0.94-3.28-3.85-3.28h-4.28v6.8h4.28c2.91,0,3.85-0.58,3.85-3.31V113.68z"/>
		<path class="st1" d="M420.8,122.84h-8.37l-2,5.73h-4.03l8.04-21.6h4.61l8.04,21.6h-4.25L420.8,122.84z M413.52,119.56h6.19
			l-3.1-8.8L413.52,119.56z"/>
		<polygon class="st1" points="434.18,106.97 444.52,121.96 444.52,106.97 448.53,106.97 448.53,128.57 445.01,128.57 
			434.73,113.71 434.73,128.57 430.69,128.57 430.69,106.97 		"/>
		<path class="st1" d="M457.33,116.59v2.37c0,5.13,1.03,6.19,5.28,6.19c1.43,0,2.94,0.03,5.67-0.06l-0.67,3.49
			c-2.4,0.09-4.03,0.06-5.13,0.06c-7.13,0-9.34-2.55-9.34-9.71v-2.34c0-7.28,2.43-9.68,9.31-9.68c1.37,0,2.94-0.03,5.64,0.06
			l-0.67,3.49c-1.37-0.03-3.34-0.06-4.89-0.06C458.18,110.4,457.33,111.37,457.33,116.59"/>
		<polygon class="st1" points="487.63,106.97 486.94,110.46 476.38,110.46 476.38,115.77 486.75,115.77 486.09,119.26 
			476.38,119.26 476.38,125.09 487.66,125.09 487,128.57 472.35,128.57 472.35,106.97 		"/>
	</g>
</g>
<g>
	<path class="st1" d="M75.94,47.56c-2.76,0.15-8.08,2.21-5.98,8.92c1.74,5.55,9.64,11.4,10.98,20.22
		c1.04,6.81-1.07,14.22-6.45,17.71c3.59-5.55,4.15-10.41,2.05-16.28c-2.11-5.88-11.83-13.4-12.92-22.09
		c-1.02-8.21,6.57-14.52,8.14-15.73c0.73,0.08-2.72-0.2-2.28-0.18c-1.25,1.07-3.87,3.45-6.38,6.64
		c-11.09,2.47-19.39,12.35-19.39,24.18c0,5.97,2.11,11.45,5.63,15.73c1.97,2.39,7.5,7.93,11.76,7.7c2.76-0.15,8.08-2.21,5.98-8.92
		c-1.74-5.55-9.64-11.4-10.98-20.22c-1.03-6.78,1.06-14.16,6.39-17.67c-0.63,0.84-1.59,2.26-2.09,3.6
		c-1.23,3.33-1.28,7.33-0.54,10.32c0.9,3.63,4.81,8.94,7.84,12.68c0.65,0.8,2.89,3.38,3.94,5.48c1.82,3.65,2.92,8.3,1.78,11.85
		c-1.26,3.95-6.64,9.58-7.33,10.3c-0.32-0.02,2.64,0.07,2.27,0.07c2.32-2.41,4.19-4.62,5.64-6.72C85.05,92.68,93.32,82.81,93.32,71
		c0-5.97-2.11-11.45-5.63-15.73C85.73,52.87,80.2,47.33,75.94,47.56z"/>
	<path class="st1" d="M99.79,87l19.32,2.61l-16.39-10.06L132.03,75l-28.89-7.76l17.72-8.27l-19.33,0.39l22.19-19.65l-28.38,9.03
		l10.43-16.5L89.59,43.1l8.08-28.6L78.61,37.52l-0.25-19.67l-7.62,17.83L62.13,7.36l-3.59,29.51L47.8,20.6l3.24,19.24L28.37,20.55
		l12.88,26.7l-17.69-7.83l13.15,14.47l-29.64-4L32.34,65.4l-19.01,2.95l18.83,5.06L5.01,86.09l29.74-0.6L20.37,98.23l18.45-5.88
		l-15.99,25.31L47.67,101l-5.25,18.57l12.42-14.99l0.38,30.09l11.71-27.4l5.58,18.35l2.33-19.17l16.48,24.98l-4.97-29.51
		l14.74,12.54l-8.36-17.32l27.21,12.05L99.79,87z M68.52,101.82c-17.01,0-30.81-13.79-30.81-30.81C37.71,54,51.5,40.2,68.52,40.2
		c17.01,0,30.81,13.79,30.81,30.81C99.33,88.03,85.53,101.82,68.52,101.82z"/>
</g>
<g id="Layer_27">
</g>
</svg>
